<svg xmlns="http://www.w3.org/2000/svg" viewBox="0 0 28 28">
  <path fill="#9FEAF9" d="M20.53 3.89a3.43 3.43 0 0 0-1.26-.92 4.48 4.48 0 0 0-3.51 0 3.45 3.45 0 0 0-1.26.92L2.67 15.73a3.67 3.67 0 0 0-1 1.44 4.69 4.69 0 0 0-.36 1.78v.2a4.58 4.58 0 0 0 .36 1.78 3.67 3.67 0 0 0 1 1.44c.447.447.976.802 1.56 1.05a5 5 0 0 0 3.84 0 4.45 4.45 0 0 0 1.56-1.05l4.58-4.58-2.5-2.49-4.57 4.55a1.75 1.75 0 0 1-2.38 0 1.64 1.64 0 0 1-.49-1.19v-.08a1.64 1.64 0 0 1 .49-1.19L16.02 5.54a1.09 1.09 0 0 1 .38-.27 1.23 1.23 0 0 1 1 0 1.1 1.1 0 0 1 .38.27l.94.94 2.46-2.46-.94-.94a3.43 3.43 0 0 0-.71-.5z"/>
  <path fill="#9FEAF9" d="M25.34 11.14a5.11 5.11 0 0 0-1.56-1L19.2 14.7l2.5 2.48 4.59-4.58a3.67 3.67 0 0 0 1-1.46z"/>
</svg>
