<svg xmlns="http://www.w3.org/2000/svg" width="16" height="16" viewBox="0 0 16 16" fill="currentColor">
  <path d="M13.383,1.361l-0.975-1.229c-0.127-0.158-0.318-0.13-0.318-0.13H0.439 c-0.242,0-0.438,0.195-0.438,0.437v12.802c0,0.241,0.196,0.438,0.438,0.438H13.24c0.242,0,0.438-0.196,0.438-0.438V12.72v-0.084 V2.07C13.678,2.032,13.68,1.768,13.383,1.361z M2.298,0.895h8.79v5.704h-8.79C2.298,6.599,2.298,0.895,2.298,0.895z M7.181,11.805 c-1.17,0-2.12-0.949-2.12-2.119s0.949-2.119,2.12-2.119c1.17,0,2.118,0.949,2.118,2.119S8.351,11.805,7.181,11.805z" />
</svg>
