<svg width="1650" height="619" xmlns="http://www.w3.org/2000/svg" xmlns:xlink="http://www.w3.org/1999/xlink" xml:space="preserve" overflow="hidden"><g transform="translate(-265 -531)"><g><rect x="273" y="714" width="545" height="133" fill="#D9D9D9" fill-opacity="1"/><text fill="#000000" fill-opacity="1" font-family="Courier New,Courier New_MSFontService,sans-serif" font-style="normal" font-variant="normal" font-weight="700" font-stretch="normal" font-size="83" text-anchor="start" direction="ltr" writing-mode="lr-tb" unicode-bidi="normal" text-decoration="none" transform="matrix(1 0 0 1 372.769 803)">A20:A16</text><rect x="273" y="847" width="545" height="133" fill="#F2F2F2" fill-opacity="1"/><text fill="#000000" fill-opacity="1" font-family="Aptos Display,Aptos Display_MSFontService,sans-serif" font-style="normal" font-variant="normal" font-weight="400" font-stretch="normal" font-size="83" text-anchor="start" direction="ltr" writing-mode="lr-tb" unicode-bidi="normal" text-decoration="none" transform="matrix(1 0 0 1 453.997 940)">5 bits</text><rect x="273" y="980" width="545" height="134" fill="#F2F2F2" fill-opacity="1"/><text fill="#000000" fill-opacity="1" font-family="Aptos Display,Aptos Display_MSFontService,sans-serif" font-style="normal" font-variant="normal" font-weight="400" font-stretch="normal" font-size="83" text-anchor="start" direction="ltr" writing-mode="lr-tb" unicode-bidi="normal" text-decoration="none" transform="matrix(1 0 0 1 373.582 1073)">32 regions</text><rect x="818" y="714" width="545" height="133" fill="#D9D9D9" fill-opacity="1"/><text fill="#000000" fill-opacity="1" font-family="Courier New,Courier New_MSFontService,sans-serif" font-style="normal" font-variant="normal" font-weight="700" font-stretch="normal" font-size="83" text-anchor="start" direction="ltr" writing-mode="lr-tb" unicode-bidi="normal" text-decoration="none" transform="matrix(1 0 0 1 917.986 803)">A15:A13</text><rect x="818" y="847" width="545" height="133" fill="#F2F2F2" fill-opacity="1"/><text fill="#000000" fill-opacity="1" font-family="Aptos Display,Aptos Display_MSFontService,sans-serif" font-style="normal" font-variant="normal" font-weight="400" font-stretch="normal" font-size="83" text-anchor="start" direction="ltr" writing-mode="lr-tb" unicode-bidi="normal" text-decoration="none" transform="matrix(1 0 0 1 999.214 940)">3 bits</text><rect x="818" y="980" width="545" height="134" fill="#F2F2F2" fill-opacity="1"/><text fill="#000000" fill-opacity="1" font-family="Aptos Display,Aptos Display_MSFontService,sans-serif" font-style="normal" font-variant="normal" font-weight="400" font-stretch="normal" font-size="83" text-anchor="start" direction="ltr" writing-mode="lr-tb" unicode-bidi="normal" text-decoration="none" transform="matrix(1 0 0 1 978.875 1073)">8 slots</text><rect x="1363" y="714" width="545" height="133" fill="#D9D9D9" fill-opacity="1"/><text fill="#000000" fill-opacity="1" font-family="Courier New,Courier New_MSFontService,sans-serif" font-style="normal" font-variant="normal" font-weight="700" font-stretch="normal" font-size="83" text-anchor="start" direction="ltr" writing-mode="lr-tb" unicode-bidi="normal" text-decoration="none" transform="matrix(1 0 0 1 1487.84 803)">A12:A0</text><rect x="1363" y="847" width="545" height="133" fill="#F2F2F2" fill-opacity="1"/><text fill="#000000" fill-opacity="1" font-family="Aptos Display,Aptos Display_MSFontService,sans-serif" font-style="normal" font-variant="normal" font-weight="400" font-stretch="normal" font-size="83" text-anchor="start" direction="ltr" writing-mode="lr-tb" unicode-bidi="normal" text-decoration="none" transform="matrix(1 0 0 1 1522.95 940)">13 bits</text><rect x="1363" y="980" width="545" height="134" fill="#F2F2F2" fill-opacity="1"/><text fill="#000000" fill-opacity="1" font-family="Aptos Display,Aptos Display_MSFontService,sans-serif" font-style="normal" font-variant="normal" font-weight="400" font-stretch="normal" font-size="83" text-anchor="start" direction="ltr" writing-mode="lr-tb" unicode-bidi="normal" text-decoration="none" transform="matrix(1 0 0 1 1467.9 1073)">8K offsets</text><rect x="273" y="549" width="1635" height="166" fill="#F2F2F2" fill-opacity="1"/><text fill="#000000" fill-opacity="1" font-family="Aptos,Aptos_MSFontService,sans-serif" font-style="normal" font-variant="normal" font-weight="400" font-stretch="normal" font-size="110" text-anchor="start" direction="ltr" writing-mode="lr-tb" unicode-bidi="normal" text-decoration="none" transform="matrix(1 0 0 1 686.618 667)">Physical Memory</text><path d="M0 0 0.000360892 399.867" stroke="#BFBFBF" stroke-width="6.875" stroke-linecap="butt" stroke-linejoin="miter" stroke-miterlimit="8" stroke-opacity="1" fill="none" fill-rule="evenodd" transform="matrix(1 0 0 -1 821.5 1114.37)"/><path d="M0 0 0.000360892 399.867" stroke="#BFBFBF" stroke-width="6.875" stroke-linecap="butt" stroke-linejoin="miter" stroke-miterlimit="8" stroke-opacity="1" fill="none" fill-rule="evenodd" transform="matrix(1 0 0 -1 1364.5 1114.37)"/><path d="M0 0 0.000360892 564.868" stroke="#BFBFBF" stroke-width="6.875" stroke-linecap="butt" stroke-linejoin="miter" stroke-miterlimit="8" stroke-opacity="1" fill="none" fill-rule="evenodd" transform="matrix(1 0 0 -1 273.5 1114.37)"/><path d="M0 0 0.000360892 564.868" stroke="#BFBFBF" stroke-width="6.875" stroke-linecap="butt" stroke-linejoin="miter" stroke-miterlimit="8" stroke-opacity="1" fill="none" fill-rule="evenodd" transform="matrix(1 0 0 -1 1906.5 1114.37)"/><path d="M273.5 1114.5 1909.15 1114.5" stroke="#BFBFBF" stroke-width="6.875" stroke-linecap="butt" stroke-linejoin="miter" stroke-miterlimit="8" stroke-opacity="1" fill="none" fill-rule="evenodd"/><path d="M270.5 552.5 1906.15 552.5" stroke="#BFBFBF" stroke-width="6.875" stroke-linecap="butt" stroke-linejoin="miter" stroke-miterlimit="8" stroke-opacity="1" fill="none" fill-rule="evenodd"/></g></g></svg>